<svg xmlns="http://www.w3.org/2000/svg" viewBox="0 0 198.3 86.5" enable-background="new 0 0 198.3 86.5"><g fill="#FF0015"><path d="M114.3 10.5c-1.8-.1-3.7-.1-5.2.1-6.1.8-11.5 4.6-14.2 10.1-2.7 5.3-5 11.7-2 17.2.8 1.4 2.8 3.8 5.6 3.8h15.8l14.8-41h-9.4l-11.8 30.9H105c-.6 0-1.4-.1-2-.9-1.8-2.3-.3-5.2 1.3-7.1 1.1-1.3 2.6-2.1 4.3-2.3.6-.1 1.3-.1 1.8-.1l3.9-10.7zM177 28c3.9-.2 5.4 3.7 4.4 6.5l-2.5 7h8.6s2.6-6.8 3-10.3c.3-2.7 0-5.6-1.6-8 2-.9 3.8-2.4 5.2-4.1 1.7-2 3.3-4.4 4-6.8.2-.9 0-2 0-2H192c-2.7 5.9-4.8 8.1-11.7 8.3L187.2.4h-8l-15.2 41h8.1L177 28zM61.1 18.6L50.5 30.8h8.4l10.5-12.2 3-8.2H57.5c-2 0-4.1.4-5.4.8-1.9.6-2.7 1.1-4.3 2.1-1.1.7-2.6 1.9-4 3.5-3.7 4.3-5.1 11.8-4.8 14.9.2 2.7.5 4.1 1.7 6.2.7 1.2 2.1 3.5 4.8 3.6h15.6l3.6-9.6-14.9-.1c-.5 0-1.1-1.9-1.3-2.4-.9-2.3-.7-5.2.8-6.9 1.8-2 4.1-4 6.9-4 1.5.1 4.8.1 4.9.1zM84.4 21.3l-7.8 20.3h9.2l8.3-21.4c1.6-4.1 0-9.7-5-9.7H74L62.5 41.6h8l8.6-22.7h3.8c1.3 0 1.9 1.3 1.5 2.4zM18.1 55.6h9.7L48.2 0h-9.8l-6.3 18H20.6l-3.9 10.1h11.7zM149.5 40.6c.7.6 2.3 1.3 3.1 1.3h9.1l3.9-10.6s-5.1.1-6.5-.1c-1.8-.2-2.3-1.8-2.4-2.6-.1-1.3 1-3.9 1.6-4.8.8-1.2 2.5-2.4 4-2.4h6.8l4.2-10.6h-5.9c-2 0-4.9.4-6.8 1.1-1 .4-3 1.1-4.1 1.9-4.8 3.5-7 6.8-8.6 11.5-1.2 3.7-2.3 8.1-1 11.8.6 1.3 1.5 2.6 2.6 3.5zM132.8 22c.8-.5 1.9-.9 2.8-1 .7-.1 2.3-.1 2.3-.1l3.7-10.2s-7.4-.2-10.8 1.4c-3.6 1.7-6.2 4.3-7.8 8.7l-7.8 20.9h9.2l6.4-17.3c.1-.5 1-1.8 2-2.4zM17.5.3L1.8 41.2h8.5L26 .3zM151.4 13.4H142l-10.2 28.5h9.3zM146.2.5l-3.6 9.9h9.5l3.6-9.9z"/></g><g fill="#231F20"><path d="M6.4 67.8l146.9 1.8 3.4-8.9L0 62.3l.9.8 142.2.2-.8 2L5.5 67zM150.2 77.8l-131.6.3 1 .8 116.9 1.6-.8 2.1-111.1.6.9.8L147 86.5zM140.4 71.6l-128.3 1 1 .8 126 1.7zM164.8 69.6h12.7l3.4-8.9h-12.7zM158.5 86.5h12.6l3.3-8.7h-12.6zM153.3 69.6l-3.1 8.2h11.6l3-8.2zM175.7 79.9c0-1.4 1.1-2.5 2.5-2.5 1.3 0 2.5 1.1 2.5 2.5s-1.1 2.5-2.5 2.5c-1.4-.1-2.5-1.2-2.5-2.5m4.6 0c0-1.1-.9-2.1-2.1-2.1-1.2 0-2.1.9-2.1 2.1 0 1.2.9 2.1 2.1 2.1 1.1-.1 2.1-1 2.1-2.1zM177.1 78.5h1.4c.5 0 .8.3.8.8 0 .4-.2.6-.5.7.2 0 .4.2.4.5.1.3 0 .6.1.8h-.5v-.5c0-.4-.3-.6-.5-.6h-.6v1.1h-.6v-2.8m1.3 1.3c.2 0 .4-.2.4-.4s-.2-.4-.4-.4h-.7v.8h.7z"/></g><g fill="#FF0015"><path d="M34.7 56.5h1.7l5.4-9.1 2 9.5 9-9.5-1.6 9.1H53l1.9-12.9-10 10.6-2.4-10.6zM82.1 50.4c.5-1.4 1.7-2.7 3.2-3.7 2.4-1.6 5.5-2.5 8.2-2.5 4.9 0 7.8 2.8 6.4 6.4-1.3 3.4-6.3 6.2-11.3 6.2-4.8-.2-7.8-2.9-6.5-6.4m16.1 0c1.1-2.9-1.2-5.1-5.1-5.1-4 0-8.1 2.2-9.2 5.1-1.1 2.7 1.3 5 5.2 5 4 .1 8-2.2 9.1-5zM134.6 50.4c.5-1.4 1.7-2.7 3.2-3.7 2.3-1.6 5.5-2.5 8.1-2.5 4.8 0 7.8 2.8 6.5 6.4-1.3 3.4-6.2 6.2-11.3 6.2-4.8-.2-7.8-2.9-6.5-6.4m16.1 0c1.1-2.9-1.3-5.1-5.1-5.1-4 0-8.1 2.2-9.1 5.1-1.1 2.7 1.3 5 5.2 5 3.9.1 8-2.2 9-5zM56.4 50.4c.5-1.4 1.7-2.7 3.2-3.7 2.3-1.6 5.5-2.5 8.1-2.5 4.8 0 7.8 2.8 6.4 6.4-1.1 3.3-6.1 6-11.1 6-4.9 0-7.9-2.7-6.6-6.2m16.1 0c1.1-2.9-1.3-5.1-5.1-5.1-4 0-8.1 2.2-9.2 5.1-1.1 2.7 1.3 5 5.2 5 4 .1 8.1-2.2 9.1-5zM173.6 54.2c.3 1.8 1.6 2.5 3.6 2.5 3 0 5.4-1.3 6.2-3.5.5-1.2 0-2.5-2.4-3.5-.6-.3-1.6-.5-2.1-1-.7-.6-.7-1.2-.5-1.7.4-1 1.9-1.9 3.3-1.9 1.1 0 2.1.5 2.2 1.7l1.7-.7c-.3-1.4-1.6-2.1-3.3-2.1-2.8 0-5.1 1.3-5.7 3-.3.7-.2 1.6.3 2.2.3.4.8.8 2.4 1.4.8.3 1.6.6 2.1 1.3.3.4.3.9.1 1.4-.4 1.2-2.1 2.2-3.9 2.2-1 0-1.6-.3-2-.7-.2-.3-.4-.8-.3-1.3l-1.7.7zM111.3 54.2c.3 1.8 1.7 2.5 3.6 2.5 3 0 5.3-1.3 6.2-3.5.5-1.2.1-2.5-2.3-3.5-.6-.3-1.6-.5-2.1-1-.6-.6-.7-1.2-.5-1.7.4-1 1.9-1.9 3.3-1.9 1.1 0 2.1.5 2.2 1.7l1.8-.7c-.3-1.4-1.6-2.1-3.3-2.1-2.8 0-5.1 1.3-5.8 3-.3.7-.1 1.6.3 2.2.3.4.8.8 2.4 1.4.8.3 1.7.6 2.1 1.3.3.4.3.9.1 1.4-.4 1.2-2.1 2.2-3.8 2.2-1 0-1.6-.3-2-.7-.2-.3-.4-.8-.4-1.3l-1.8.7zM75 56.5h1.7l4.2-11.1h4.5l.4-1.2H75.3l-.4 1.2h4.3zM165.6 56.5h1.7l4.2-11.1h4.5l.4-1.2h-10.5l-.4 1.2h4.3zM127 44.2h4c3.1 0 4.3 1.2 3.5 3.4-.4 1.1-1.3 2.1-2.9 2.7-.7.3-1.8.6-3.4.6h-2l-2.1 5.5h-1.7l4.6-12.2m2 5.6c1.7 0 3.2-.8 3.7-2.3.3-.8 0-1.5-.5-1.8-.3-.2-.7-.3-1.7-.3h-2.1l-1.7 4.5h2.3zM103.9 44.2h3.6c1.9 0 4.4.9 3.5 3.3-.7 1.8-2.7 3.1-5.1 3.2l2.7 5.8h-2l-2.7-5.8h-.7l-2.2 5.8h-1.8l4.7-12.3m1.9 5.5c1 0 1.8-.3 2.4-.7.5-.3 1-.9 1.2-1.4.4-1.2-.5-2.2-2.6-2.2h-1.6l-1.6 4.3h2.2zM156.4 44.2h3.6c2 0 4.5.9 3.6 3.3-.7 1.8-2.8 3.1-5.2 3.2l2.8 5.8h-2.1l-2.6-5.8h-.8l-2.2 5.8h-1.7l4.6-12.3m1.9 5.5c1 0 1.7-.3 2.4-.7.6-.3 1-.9 1.3-1.4.4-1.2-.5-2.2-2.7-2.2h-1.6l-1.6 4.3h2.2zM34.7 56.5h1.7l5.4-9.1 2 9.5 9-9.5-1.6 9.1H53l1.9-12.9-10 10.6-2.4-10.6zM82.1 50.4c.5-1.4 1.7-2.7 3.2-3.7 2.4-1.6 5.5-2.5 8.2-2.5 4.9 0 7.8 2.8 6.4 6.4-1.3 3.4-6.3 6.2-11.3 6.2-4.8-.2-7.8-2.9-6.5-6.4m16.1 0c1.1-2.9-1.2-5.1-5.1-5.1-4 0-8.1 2.2-9.2 5.1-1.1 2.7 1.3 5 5.2 5 4 .1 8-2.2 9.1-5zM134.6 50.4c.5-1.4 1.7-2.7 3.2-3.7 2.3-1.6 5.5-2.5 8.1-2.5 4.8 0 7.8 2.8 6.5 6.4-1.3 3.4-6.2 6.2-11.3 6.2-4.8-.2-7.8-2.9-6.5-6.4m16.1 0c1.1-2.9-1.3-5.1-5.1-5.1-4 0-8.1 2.2-9.1 5.1-1.1 2.7 1.3 5 5.2 5 3.9.1 8-2.2 9-5zM56.4 50.4c.5-1.4 1.7-2.7 3.2-3.7 2.3-1.6 5.5-2.5 8.1-2.5 4.8 0 7.8 2.8 6.4 6.4-1.1 3.3-6.1 6-11.1 6-4.9 0-7.9-2.7-6.6-6.2m16.1 0c1.1-2.9-1.3-5.1-5.1-5.1-4 0-8.1 2.2-9.2 5.1-1.1 2.7 1.3 5 5.2 5 4 .1 8.1-2.2 9.1-5zM173.6 54.2c.3 1.8 1.6 2.5 3.6 2.5 3 0 5.4-1.3 6.2-3.5.5-1.2 0-2.5-2.4-3.5-.6-.3-1.6-.5-2.1-1-.7-.6-.7-1.2-.5-1.7.4-1 1.9-1.9 3.3-1.9 1.1 0 2.1.5 2.2 1.7l1.7-.7c-.3-1.4-1.6-2.1-3.3-2.1-2.8 0-5.1 1.3-5.7 3-.3.7-.2 1.6.3 2.2.3.4.8.8 2.4 1.4.8.3 1.6.6 2.1 1.3.3.4.3.9.1 1.4-.4 1.2-2.1 2.2-3.9 2.2-1 0-1.6-.3-2-.7-.2-.3-.4-.8-.3-1.3l-1.7.7zM111.3 54.2c.3 1.8 1.7 2.5 3.6 2.5 3 0 5.3-1.3 6.2-3.5.5-1.2.1-2.5-2.3-3.5-.6-.3-1.6-.5-2.1-1-.6-.6-.7-1.2-.5-1.7.4-1 1.9-1.9 3.3-1.9 1.1 0 2.1.5 2.2 1.7l1.8-.7c-.3-1.4-1.6-2.1-3.3-2.1-2.8 0-5.1 1.3-5.8 3-.3.7-.1 1.6.3 2.2.3.4.8.8 2.4 1.4.8.3 1.7.6 2.1 1.3.3.4.3.9.1 1.4-.4 1.2-2.1 2.2-3.8 2.2-1 0-1.6-.3-2-.7-.2-.3-.4-.8-.4-1.3l-1.8.7zM75 56.5h1.7l4.2-11.1h4.5l.4-1.2H75.3l-.4 1.2h4.3zM165.6 56.5h1.7l4.2-11.1h4.5l.4-1.2h-10.5l-.4 1.2h4.3zM127 44.2h4c3.1 0 4.3 1.2 3.5 3.4-.4 1.1-1.3 2.1-2.9 2.7-.7.3-1.8.6-3.4.6h-2l-2.1 5.5h-1.7l4.6-12.2m2 5.6c1.7 0 3.2-.8 3.7-2.3.3-.8 0-1.5-.5-1.8-.3-.2-.7-.3-1.7-.3h-2.1l-1.7 4.5h2.3zM103.9 44.2h3.6c1.9 0 4.4.9 3.5 3.3-.7 1.8-2.7 3.1-5.1 3.2l2.7 5.8h-2l-2.7-5.8h-.7l-2.2 5.8h-1.8l4.7-12.3m1.9 5.5c1 0 1.8-.3 2.4-.7.5-.3 1-.9 1.2-1.4.4-1.2-.5-2.2-2.6-2.2h-1.6l-1.6 4.3h2.2zM156.4 44.2h3.6c2 0 4.5.9 3.6 3.3-.7 1.8-2.8 3.1-5.2 3.2l2.8 5.8h-2.1l-2.6-5.8h-.8l-2.2 5.8h-1.7l4.6-12.3m1.9 5.5c1 0 1.7-.3 2.4-.7.6-.3 1-.9 1.3-1.4.4-1.2-.5-2.2-2.7-2.2h-1.6l-1.6 4.3h2.2z"/></g></svg>