<?xml version="1.0" encoding="UTF-8" standalone="no"?>
<!-- Generator: Adobe Illustrator 20.1.0, SVG Export Plug-In . SVG Version: 6.00 Build 0)  -->

<svg
   xmlns:dc="http://purl.org/dc/elements/1.1/"
   xmlns:cc="http://creativecommons.org/ns#"
   xmlns:rdf="http://www.w3.org/1999/02/22-rdf-syntax-ns#"
   xmlns:svg="http://www.w3.org/2000/svg"
   xmlns="http://www.w3.org/2000/svg"
   xmlns:sodipodi="http://sodipodi.sourceforge.net/DTD/sodipodi-0.dtd"
   xmlns:inkscape="http://www.inkscape.org/namespaces/inkscape"
   version="1.1"
   id="Calque_1"
   inkscape:version="0.92.0 r15299"
   sodipodi:docname="logo.svg"
   x="0px"
   y="0px"
   viewBox="0 0 175.006 77.014175"
   xml:space="preserve"
   width="175.006"
   height="77.014175"><metadata
     id="metadata17"><rdf:RDF><cc:Work
         rdf:about=""><dc:format>image/svg+xml</dc:format><dc:type
           rdf:resource="http://purl.org/dc/dcmitype/StillImage" /><dc:title></dc:title></cc:Work></rdf:RDF></metadata><defs
     id="defs15" /><style
     type="text/css"
     id="style2">
	.st0{fill:#144A82;}
</style><sodipodi:namedview
     bordercolor="#666666"
     borderopacity="1"
     gridtolerance="10"
     guidetolerance="10"
     id="namedview23"
     inkscape:current-layer="Calque_1"
     inkscape:cx="44.154468"
     inkscape:cy="38.511168"
     inkscape:pageopacity="0"
     inkscape:pageshadow="2"
     inkscape:window-height="480"
     inkscape:window-maximized="0"
     inkscape:window-width="640"
     inkscape:window-x="75"
     inkscape:window-y="34"
     inkscape:zoom="1.6382979"
     objecttolerance="10"
     pagecolor="#ffffff"
     showgrid="false"
     fit-margin-top="0"
     fit-margin-left="0"
     fit-margin-right="0"
     fit-margin-bottom="0" /><g
     id="g5"
     transform="translate(-6.4606648,-14.996994)"><path
       id="path7"
       class="st0"
       d="m 121.4,15.1 c -7.9,0 -15.8,2.4 -22.6,6.3 C 93,17.3 85.6,14.9 77.4,15 59.5,15.1 42.1,26.8 35,43.1 h 1.3 C 43.2,30.4 59,20.7 75.8,20.7 c 7.2,0 13.3,1.4 18.3,3.8 -4.1,3.1 -7.8,6.9 -10.7,11 h 2.5 c 3.3,-3.5 7.3,-6.7 11.8,-9.1 3.9,2.4 7.1,5.5 9.4,9.1 h 3 c -1.7,-4.3 -4.3,-8.2 -7.7,-11.3 5.4,-2.2 11.4,-3.4 18.1,-3.4 18.4,0 31.6,9.7 34.5,22.5 h 1.1 C 153.9,26.8 139.7,15 121.4,15.1 Z"
       inkscape:connector-curvature="0"
       style="fill:#144a82" /><path
       id="path9"
       class="st0"
       d="m 112.2,86.3 c -7.2,0 -13.3,-1.4 -18.3,-3.8 4.1,-3.1 7.8,-6.8 10.7,-11 h -2.4 C 98.9,75 94.9,78.2 90.4,80.6 86.5,78.2 83.3,75.1 81,71.5 h -3 c 1.7,4.3 4.3,8.2 7.7,11.3 C 80.3,85 74.3,86.2 67.6,86.2 49.1,86.2 36,76.5 33,63.7 h -1.1 c 2.3,16.5 16.5,28.3 34.7,28.2 7.9,-0.1 15.8,-2.4 22.6,-6.3 5.9,4.1 13.3,6.6 21.4,6.4 17.9,-0.1 35.3,-11.8 42.4,-28.1 h -1.3 C 144.9,76.6 129,86.3 112.2,86.3 Z"
       inkscape:connector-curvature="0"
       style="fill:#144a82" /><path
       id="path11"
       class="st0"
       d="m 37.6,58 c -0.2,0.9 -0.3,1.7 -0.3,2.4 0.4,4.1 4.9,4.7 7.4,4.7 2.4,0 5.3,-0.2 6.6,-0.7 0.9,-0.4 3.1,-1.4 3.7,-3.8 0,0 1.1,-3.7 1.4,-5.5 0.3,-1.8 -0.1,-2.7 -1,-3.3 -1.2,-0.7 -6,-0.9 -6.8,-0.9 -0.8,0 -3.1,-0.1 -3.2,-1.1 -0.2,-1.1 0.4,-2.5 0.8,-3.3 0.5,-1 2.9,-0.9 2.9,-0.9 0,0 2.5,-0.1 2.8,0.7 0.2,0.5 0,1.6 0,1.6 h 5.5 c 0,0 0.9,-2.5 -0.2,-4.6 -1.1,-2 -6.9,-2.1 -6.9,-2.1 0,0 -4.2,-0.1 -6.7,0.8 -2.4,0.9 -3.1,3.6 -3.1,3.6 0,0 -1,3.6 -1,3.8 0,0.3 -0.5,1.9 0.2,3.1 0.9,1.7 3.6,1.9 3.6,1.9 0,0 4.3,0.3 6.2,0.5 1.4,0.2 1.2,1.5 1.2,1.5 0,0 -0.2,1.4 -0.6,2.6 0,0 -0.3,1.1 -1.7,1.3 -1.3,0.2 -2.4,0.2 -3.8,0.1 -1.8,-0.1 -1.9,-0.7 -1.7,-2.3 z"
       inkscape:connector-curvature="0"
       style="fill:#144a82" /><path
       id="path13"
       class="st0"
       d="m 103.7,60.1 h 7.6 l 0.2,5.2 h 5.8 l -1.6,-24 h -8.6 l -11.3,24 h 5.9 z m 6.9,-14.5 0.1,10.3 h -5 z"
       inkscape:connector-curvature="0"
       style="fill:#144a82" /><path
       id="path15"
       class="st0"
       d="m 149.5,52.5 c 0.4,-1.5 1,-5.6 1,-5.6 0,0 0.4,-2.4 -1.2,-4 -1,-1.1 -3.2,-1.4 -4.6,-1.4 -1.2,0 -11.2,0 -11.2,0 L 128,65.2 h 5.8 l 1.9,-7.8 h 4.2 l 2.2,7.8 h 5.7 l -2.4,-8.1 c 0,0 1.4,-0.6 2.4,-1.4 1.5,-1 1.7,-3.2 1.7,-3.2 z m -5.1,-3.9 c 0,0 -0.2,2.6 -1.1,3.4 -0.9,0.8 -1.8,0.7 -1.8,0.7 h -4.6 l 1.3,-6.2 h 4.5 c 0,0 1.2,0 1.6,0.7 0.3,0.6 0.1,1.4 0.1,1.4 z"
       inkscape:connector-curvature="0"
       style="fill:#144a82" /><path
       id="path17"
       class="st0"
       d="m 20.5,41.4 h -1.1 c 0,0 -4.1,-0.1 -6.6,1 -3,1.2 -3.7,4.5 -3.7,4.5 L 6.7,57.8 c 0,0 -0.6,2.3 0.1,4.1 1.3,3.5 7.5,3.5 7.5,3.5 h 1 c 0,0 4.1,0 6.7,-1 2.9,-1.2 3.7,-4.5 3.7,-4.5 C 27.1,53.8 28,49 28,49 c 0,0 0.6,-2.3 -0.1,-4.1 -1.3,-3.5 -7.4,-3.5 -7.4,-3.5 z m 1.7,7.8 -1.9,9.1 c 0,0 -0.2,1.2 -1,1.8 -0.7,0.5 -3.3,0.5 -3.3,0.5 h -0.7 c 0,0 -2.1,0 -2.6,-0.9 -0.5,-0.9 -0.1,-2.2 -0.1,-2.2 l 1.9,-9.1 c 0,0 0.2,-1.2 1,-1.8 0.7,-0.5 3.3,-0.5 3.3,-0.5 h 0.7 c 0,0 2.1,0 2.6,0.8 0.4,1 0.1,2.3 0.1,2.3 z"
       inkscape:connector-curvature="0"
       style="fill:#144a82" /><path
       id="path19"
       class="st0"
       d="m 181.2,44.9 c -1.3,-3.5 -7.5,-3.5 -7.5,-3.5 h -1.1 c 0,0 -4.1,-0.1 -6.7,1 -3,1.3 -3.7,4.5 -3.7,4.5 l -2.3,10.9 c 0,0 -0.6,2.3 0.1,4.1 1.3,3.5 7.5,3.5 7.5,3.5 h 1 c 0,0 4.1,0 6.7,-1 2.9,-1.2 3.7,-4.5 3.7,-4.5 1.4,-6.1 2.3,-10.9 2.3,-10.9 0,0 0.6,-2.3 0,-4.1 z m -5.7,4.3 -1.9,9.1 c 0,0 -0.2,1.2 -1,1.8 -0.7,0.5 -3.3,0.5 -3.3,0.5 h -0.7 c 0,0 -2.1,0 -2.6,-0.9 -0.5,-0.9 -0.1,-2.2 -0.1,-2.2 l 1.9,-9.1 c 0,0 0.2,-1.2 1,-1.8 C 169.4,46 172,46 172,46 h 0.7 c 0,0 2.1,0 2.6,0.9 0.6,1 0.2,2.3 0.2,2.3 z"
       inkscape:connector-curvature="0"
       style="fill:#144a82" /><path
       id="path21"
       class="st0"
       d="m 88.2,48.9 c 0,0 0,-0.1 0,0 0,0 0.5,-2.3 -0.1,-4.1 -1.3,-3.5 -7.2,-3.5 -7.2,-3.5 h -1 c 0,0 -4,-0.1 -6.5,1 -2.9,1.3 -3.6,4.5 -3.6,4.5 l -2.2,10.9 c 0,0 -0.6,2.3 0.1,4.1 1.3,3.5 7.3,3.5 7.3,3.5 h 1 c 0,0 4,0 6.5,-1 2.8,-1.2 3.7,-4.5 3.7,-4.5 0.3,-0.8 0.4,-1.6 0.5,-2.3 h -5.6 c 0,0 -0.1,1.6 -1.3,2.5 -0.7,0.5 -3.2,0.5 -3.2,0.5 h -0.7 c 0,0 -2.1,0 -2.5,-0.9 -0.4,-0.9 -0.1,-2.2 -0.1,-2.2 l 1.8,-9.1 c 0,0 0.2,-1.2 0.9,-1.8 C 76.7,46 79.2,46 79.2,46 h 0.7 c 0,0 2,0 2.4,0.8 0.4,0.7 0.3,1.7 0.2,2 z"
       inkscape:connector-curvature="0"
       style="fill:#144a82" /></g></svg>