<svg id="svg2" xmlns="http://www.w3.org/2000/svg" viewBox="0 0 575.34 204.19"><defs><style>.cls-1{fill:#0a2f78;}</style></defs><title>Gurit</title><g id="layer1"><g id="g2860"><g id="g2424"><g id="g2426"><g id="g2432"><path id="path2434" class="cls-1" d="M10,112.1C10,55.71,57.46,10,116,10c47.54,0,87.77,30.13,101.22,71.64l-40.35-.13C165.43,60.39,142.47,46,116,46c-37.92,0-68.66,29.6-68.66,66.11S78.09,178.2,116,178.2a70.35,70.35,0,0,0,34.29-8.82l-10.07,42.13A110.5,110.5,0,0,1,116,214.19c-58.56,0-106-45.71-106-102.09" transform="translate(-10 -10)"/></g><g id="g2436"><path id="path2438" class="cls-1" d="M347.1,105.71h-35L299.7,161.49c-2.89,14.49-9.49,24.42-24.33,24.42-8,0-11.55-4.77-11.55-10.72a54.82,54.82,0,0,1,1.45-12.31l12.16-57.17h-35l-13.81,62.53a69.18,69.18,0,0,0-2.07,16.48c0,5.56,2.89,27,32,27,14.43,0,27.21-5.56,35-17.08h.41l-3.1,14.09h33.6Z" transform="translate(-10 -10)"/></g><g id="g2440"><path id="path2442" class="cls-1" d="M350.81,208.73h35l10.3-47.24c3.5-17.47,10.93-29.17,30.1-29.17a60.32,60.32,0,0,1,15.87,2l6.81-29.77c-3.5-1.59-7-1.79-11.75-1.79-14.23,0-26.39,7.74-33.6,19.86h-.41l3.91-16.87h-34Z" transform="translate(-10 -10)"/></g><g id="g2444"><path id="path2446" class="cls-1" d="M504.34,67h-35l-5.57,25.81h35ZM438.58,208.73h35.05l22.26-103h-35Z" transform="translate(-10 -10)"/></g><g id="g2448"><path id="path2450" class="cls-1" d="M569.88,74.74h-35l-6.81,31H510.3l-4.74,21.84h17.73l-8.24,37.32c-2.68,12.11-4.13,20.05-4.13,27.19,0,15.68,16.9,17.88,33.2,17.88,6.8,0,13.39-.8,20.41-1.2l5.35-25.2c-3.7.2-7.21.6-10.92.6-6,0-10.93-.4-10.93-5.36a59.15,59.15,0,0,1,1.85-12.31l8.46-38.91H580.6l4.74-21.84H563.28Z" transform="translate(-10 -10)"/></g><g id="g2452"><path id="path2454" class="cls-1" d="M167.21,198.8l14.29-61.22H133.64l7-32.08h81.28l-22.72,103-34.21,0Z" transform="translate(-10 -10)"/></g></g></g></g></g></svg>